$MeshFormat
4.1 0 8
$EndMeshFormat
$Entities
4 4 1 0
1 0 0 0 0 
2 40 0 0 0 
3 40 2 0 0 
4 0 2 0 0 
1 0 0 0 40 0 0 0 2 1 -2 
2 40 0 0 40 2 0 0 2 2 -3 
3 0 2 0 40 2 0 0 2 3 -4 
4 0 0 0 0 2 0 0 2 4 -1 
1 0 0 0 40 2 0 0 4 1 2 3 4 
$EndEntities
$Nodes
9 62 1 62
0 1 0 1
1
0 0 0
0 2 0 1
2
40 0 0
0 3 0 1
3
40 2 0
0 4 0 1
4
0 2 0
1 1 0 19
5
6
7
8
9
10
11
12
13
14
15
16
17
18
19
20
21
22
23
1.999999999998205 0 0
3.999999999996757 0 0
5.999999999993141 0 0
7.999999999987307 0 0
9.999999999981473 0 0
11.99999999997564 0 0
13.9999999999698 0 0
15.99999999996411 0 0
17.9999999999666 0 0
19.99999999996964 0 0
21.99999999997269 0 0
23.99999999997573 0 0
25.99999999997878 0 0
27.99999999998182 0 0
29.99999999998487 0 0
31.99999999998791 0 0
33.99999999999093 0 0
35.99999999999396 0 0
37.99999999999698 0 0
1 2 0 0
1 3 0 19
24
25
26
27
28
29
30
31
32
33
34
35
36
37
38
39
40
41
42
37.99999999999999 2 0
35.99999999999999 2 0
33.99999999999999 2 0
31.99999999999998 2 0
29.99999999999998 2 0
27.99999999999998 2 0
25.99999999999997 2 0
23.99999999999996 2 0
21.99999999999996 2 0
19.99999999999996 2 0
17.99999999999995 2 0
15.99999999999995 2 0
13.99999999999995 2 0
11.99999999999994 2 0
9.999999999999936 2 0
7.999999999999929 2 0
5.99999999999995 2 0
3.999999999999964 2 0
1.999999999999986 2 0
1 4 0 0
2 1 0 20
43
44
45
46
47
48
49
50
51
52
53
54
55
56
57
58
59
60
61
62
0.9999999999991025 1 0
2.999999999998161 0.9999999999997328 0
38.99999999999847 0.9999999999984936 0
4.999999999996366 0.9999999999993878 0
36.99999999999822 1.000000000000249 0
6.999999999993514 0.9999999999988463 0
34.99999999999999 1.000000000003002 0
32.99999999998945 0.9999999999939639 0
8.999999999990118 0.9999999999982691 0
30.99999999999997 1.000000000006036 0
28.99999999999166 1 0
10.99999999998664 0.9999999999976865 0
26.99999999999013 1 0
24.99999999998861 1 0
12.99999999998315 0.9999999999971028 0
22.99999999997421 0.9999999999863665 0
20.99999999999996 1.000000000013641 0
14.99999999998038 0.9999999999965301 0
16.99999999996536 0.9999999999820783 0
18.99999999998404 1 0
$EndNodes
$Elements
9 126 1 126
0 1 15 1
1 1 
0 2 15 1
2 2 
0 3 15 1
3 3 
0 4 15 1
4 4 
1 1 1 20
5 1 5 
6 5 6 
7 6 7 
8 7 8 
9 8 9 
10 9 10 
11 10 11 
12 11 12 
13 12 13 
14 13 14 
15 14 15 
16 15 16 
17 16 17 
18 17 18 
19 18 19 
20 19 20 
21 20 21 
22 21 22 
23 22 23 
24 23 2 
1 2 1 1
25 2 3 
1 3 1 20
26 3 24 
27 24 25 
28 25 26 
29 26 27 
30 27 28 
31 28 29 
32 29 30 
33 30 31 
34 31 32 
35 32 33 
36 33 34 
37 34 35 
38 35 36 
39 36 37 
40 37 38 
41 38 39 
42 39 40 
43 40 41 
44 41 42 
45 42 4 
1 4 1 1
46 4 1 
2 1 2 80
47 12 13 61 
48 14 15 59 
49 16 17 56 
50 18 19 53 
51 13 14 62 
52 15 16 58 
53 17 18 55 
54 19 20 52 
55 23 2 45 
56 21 22 49 
57 20 21 50 
58 22 23 47 
59 60 12 61 
60 38 39 51 
61 36 37 57 
62 37 38 54 
63 40 41 46 
64 39 40 48 
65 5 6 44 
66 35 36 60 
67 4 1 43 
68 41 42 44 
69 6 7 46 
70 42 4 43 
71 44 6 46 
72 22 47 49 
73 25 26 49 
74 47 25 49 
75 27 28 52 
76 29 30 55 
77 30 31 56 
78 32 33 59 
79 34 35 61 
80 2 3 45 
81 3 24 45 
82 13 34 61 
83 34 13 62 
84 33 14 59 
85 14 33 62 
86 31 16 56 
87 16 31 58 
88 30 17 55 
89 17 30 56 
90 29 18 53 
91 18 29 55 
92 28 19 52 
93 19 28 53 
94 26 21 49 
95 21 26 50 
96 24 25 47 
97 26 27 50 
98 28 29 53 
99 31 32 58 
100 33 34 62 
101 43 5 44 
102 1 5 43 
103 35 60 61 
104 42 43 44 
105 46 7 48 
106 11 12 60 
107 41 44 46 
108 7 8 48 
109 8 9 51 
110 10 11 57 
111 9 10 54 
112 23 45 47 
113 45 24 47 
114 57 11 60 
115 48 8 51 
116 51 9 54 
117 54 10 57 
118 40 46 48 
119 36 57 60 
120 39 48 51 
121 38 51 54 
122 37 54 57 
123 50 27 52 
124 20 50 52 
125 58 32 59 
126 15 58 59 
$EndElements
